# xmcd
#
# Track frame offsets:
# 150
# 10745
# 22928
# 31760
# 41517
# 53561
# 65576
# 78959
# 95622
# 106208
# 118468
#
# Disc length: 1727 seconds
#
#
# Revision: 0
# Processed by: cddbd v1.4PL0 Copyright (c) Steve Scherf et al.
# Submitted via: FreeRIP 2.00 
#
DISCID=7f06bd0b
DTITLE=Merle Haggard - His 30th Album
DYEAR=1900
DGENRE=Country
TTITLE0=Old Man From The Mountain
TTITLE1=Things Aren't Funny Anymore
TTITLE2=White Man Singin' The Blues
TTITLE3=Travelin'
TTITLE4=The Girl Who Made Me Laugh
TTITLE5=Honky Tonk Night Time Man
TTITLE6=Holding Things Together
TTITLE7=(The Seashores Of) Old Mexico
TTITLE8=Don't Give Up On Me
TTITLE9=A King Without A Queen
TTITLE10=It Don't Bother Me
EXTD=
EXTT0=
EXTT1=
EXTT2=
EXTT3=
EXTT4=
EXTT5=
EXTT6=
EXTT7=
EXTT8=
EXTT9=
EXTT10=
PLAYORDER=
